<svg version="1.1" xmlns="http://www.w3.org/2000/svg" xmlns:xlink="http://www.w3.org/1999/xlink" width="800"
    height="800">
    <defs />
    <g transform="scale(2,2)">
        <g id="expressions-5cb6b794">
            <g id="sketch-5cb6b794">
                <title>Expression 1</title>
                <path fill="#000000" stroke="none" paint-order="stroke fill markers" d="" fill-opacity="0.4" />
                <g>
                    <path fill="none" stroke="#000000" class="dcg-svg-curve" paint-order="fill stroke markers"
                        d=" M 1.7763568394002505e-14 218.4699726866698 L 1.7763568394002505e-14 218.4699726866698 L 14.453125000000018 218.07226409150542 L 25.39062500000002 217.5208752058253 L 34.375000000000014 216.81624222067543 L 42.18750000000002 215.94814788575314 L 49.121093750000014 214.92185065386371 L 55.468750000000014 213.7241730067154 L 61.42578125000002 212.33554739938134 L 66.9921875 210.77264405535942 L 72.36328125000001 208.99265228577906 L 77.53906250000001 207.00044093465996 L 82.61718750000003 204.761527272085 L 87.59765625000001 202.27650592517398 L 92.57812500000001 199.49401923771478 L 97.65625000000001 196.3447048242957 L 102.83203125000001 192.81100203103372 L 108.20312500000001 188.80798600152647 L 113.86718750000001 184.23893315135484 L 120.11718750000001 178.82954114819978 L 127.34375000000003 172.18995376191276 L 138.0859375 161.8831283236028 L 149.90234375 150.6467091782225 L 156.34765625000003 144.9119099453302 L 161.62109375 140.58388572131872 L 166.2109375 137.16185948270194 L 170.41015625 134.36422852375404 L 174.31640625 132.08455484229114 L 177.92968750000003 130.27906847977926 L 181.34765625 128.85823416548388 L 184.66796875 127.75921929880657 L 187.890625 126.96776308517397 L 191.015625 126.46618312173794 L 194.140625 126.23081310555044 L 197.26562500000003 126.26369731946858 L 200.390625 126.56454994249708 L 203.51562500000003 127.1307591862587 L 206.73828125 127.9873832255872 L 210.05859375 129.151355100957 L 213.4765625 130.63610775588006 L 217.08984375 132.505242602799 L 220.89843750000003 134.7860193615249 L 225 137.56728305094222 L 229.49218750000003 140.95554599573114 L 234.47265625 145.065648591443 L 240.33203125 150.27361607785647 L 248.04687500000003 157.53433802444943 L 269.140625 177.58712360205212 L 275.87890625000006 183.48683309292068 L 281.8359375 188.33897517895736 L 287.40234375 192.5198611157578 L 292.67578125 196.1430052098208 L 297.8515625 199.36938085307722 L 302.9296875 202.21645146400024 L 308.00781250000006 204.754092774396 L 313.0859375 206.99391135206832 L 318.26171875 208.98698754550765 L 323.53515625 210.73789527263278 L 329.10156249999994 212.30635582978044 L 334.9609375 213.67956861046682 L 341.2109375 214.86967246073772 L 347.94921875 215.8823250133853 L 355.37109375 216.73020778647108 L 363.76953125 217.42280987947464 L 373.6328125 217.96743746992573 L 385.83984375 218.36859878961664 L 400 218.60648697279896"
                        stroke-linecap="round" stroke-linejoin="round" stroke-miterlimit="10" stroke-width="1"
                        stroke-opacity="0.9" stroke-dasharray="" />
                </g>
            </g>
        </g>
        <g id="labels-5cb6b794" />
    </g>
</svg>